<?xml version="1.0" encoding="UTF-8" standalone="no"?>
<!-- Creator: CorelDRAW X6 -->

<svg
   xmlns:dc="http://purl.org/dc/elements/1.1/"
   xmlns:cc="http://creativecommons.org/ns#"
   xmlns:rdf="http://www.w3.org/1999/02/22-rdf-syntax-ns#"
   xmlns:svg="http://www.w3.org/2000/svg"
   xmlns="http://www.w3.org/2000/svg"
   xmlns:sodipodi="http://sodipodi.sourceforge.net/DTD/sodipodi-0.dtd"
   xmlns:inkscape="http://www.inkscape.org/namespaces/inkscape"
   xml:space="preserve"
   width="4.1642551in"
   height="2.1318984in"
   version="1.1"
   style="clip-rule:evenodd;fill-rule:evenodd;image-rendering:optimizeQuality;shape-rendering:geometricPrecision;text-rendering:geometricPrecision"
   viewBox="0 0 4164.2909 2131.9705"
   id="svg30"
   sodipodi:docname="logotip_vektor_yurstart888.svg"
   inkscape:version="0.92.1 r15371"><metadata
     id="metadata34"><rdf:RDF><cc:Work
         rdf:about=""><dc:format>image/svg+xml</dc:format><dc:type
           rdf:resource="http://purl.org/dc/dcmitype/StillImage" /><dc:title></dc:title></cc:Work></rdf:RDF></metadata><sodipodi:namedview
     pagecolor="#ffffff"
     bordercolor="#666666"
     borderopacity="1"
     objecttolerance="10"
     gridtolerance="10"
     guidetolerance="10"
     inkscape:pageopacity="0"
     inkscape:pageshadow="2"
     inkscape:window-width="1366"
     inkscape:window-height="704"
     id="namedview32"
     showgrid="false"
     inkscape:zoom="0.71811896"
     inkscape:cx="161.92008"
     inkscape:cy="-48.972534"
     inkscape:window-x="-8"
     inkscape:window-y="-8"
     inkscape:window-maximized="1"
     inkscape:current-layer="svg30" /><defs
     id="defs4"><style
       type="text/css"
       id="style2"><![CDATA[
    .fil5 {fill:#FEFEFE}
    .fil2 {fill:#1D5994}
    .fil0 {fill:#1E4771}
    .fil1 {fill:#367CBE}
    .fil4 {fill:#C7CBCD}
    .fil3 {fill:#BDBFC1;fill-rule:nonzero}
    .fil6 {fill:#FEFEFE;fill-rule:nonzero}
   ]]></style></defs><g
     id="Слой_x0020_1"
     transform="translate(-3757.1957,-3075.2678)"><metadata
       id="CorelCorpID_0Corel-Layer" /><rect
       class="fil0"
       width="4164.396"
       height="2131.9705"
       id="rect7"
       style="fill:none;stroke-width:0.30304244"
       x="3757.0486"
       y="3075.2678" /><g
       id="_162512000"><polygon
         class="fil1"
         points="5115,4687 4501,5069 4501,3226 5115,3580 "
         id="polygon9"
         style="fill:#367cbe" /><polygon
         class="fil2"
         points="3887,4687 4501,5069 4501,3226 3887,3580 "
         id="polygon11"
         style="fill:#1d5994" /><path
         class="fil3"
         d="m 3790,4743 c 0,-406 0,-813 0,-1219 l 711,-411 c 237,137 474,274 711,411 0,406 0,813 0,1219 l -712,411 -711,-411 z m 97,-56 614,355 614,-355 V 3580 l -614,-354 -614,354 z"
         id="path13"
         inkscape:connector-curvature="0"
         style="fill:#bdbfc1;fill-rule:nonzero" /><path
         class="fil4"
         d="m 4501,3397 -118,68 v 124 l -116,67 v -124 l -233,135 v 323 l 467,-270 z m -95,1252 -167,-92 v -134 -196 -134 l 167,-92 v 317 12 317 z m -372,-585 v 535 l 87,50 v -224 l 70,18 v 246 l 310,179 V 3794 l -310,179 v 246 l -70,18 v -224 l -87,50 z"
         id="path15"
         inkscape:connector-curvature="0"
         style="fill:#c7cbcd" /><path
         class="fil5"
         d="m 4501,3397 118,68 v 124 l 116,67 v -124 l 233,135 v 323 l -467,-270 z m 117,592 237,109 v 453 l -237,109 z m 350,75 v 210 l -113,-16 v 132 l 113,-16 v 224 l -467,270 V 3794 Z"
         id="path17"
         inkscape:connector-curvature="0"
         style="fill:#fefefe" /></g><g
       id="_162511976"><path
         class="fil6"
         d="m 6000,3740 c 4,8 11,32 22,70 5,17 8,36 8,56 h -38 c -26,-37 -54,-64 -82,-80 -28,-16 -59,-24 -94,-24 -43,0 -77,17 -103,50 -35,45 -53,108 -53,188 0,47 3,80 9,100 10,32 22,58 37,79 12,15 27,28 45,37 24,12 50,19 78,19 30,0 60,-9 88,-28 28,-19 55,-47 81,-84 10,-2 23,-3 40,-3 -1,10 -3,21 -5,33 -1,4 -4,22 -9,52 l -4,12 -6,19 c -17,13 -40,23 -71,29 -30,6 -68,10 -112,10 -34,0 -66,-3 -96,-9 -30,-6 -56,-16 -77,-30 -31,-20 -56,-41 -74,-64 -18,-23 -31,-48 -40,-75 -9,-27 -13,-58 -13,-92 0,-82 27,-149 81,-203 54,-53 123,-80 207,-80 34,0 66,2 96,5 30,3 58,9 84,15 z m 102,61 h 21 c 2,3 3,4 4,6 6,11 11,19 15,22 3,0 19,1 47,1 18,0 33,0 47,0 h 7 42 78 106 l 20,-3 c 3,-2 6,-8 9,-17 1,-2 2,-5 4,-9 h 15 c 2,0 6,0 10,0 0,16 0,40 0,71 v 31 18 c 0,6 0,11 -1,15 -9,3 -18,5 -25,6 -6,-9 -12,-22 -19,-38 -7,-17 -11,-26 -13,-28 -3,-3 -6,-5 -10,-6 -6,-1 -30,-2 -73,-2 -6,0 -14,0 -24,1 -1,9 -1,16 -1,22 v 46 101 l 1,109 v 45 c 0,16 1,28 4,36 4,2 11,3 20,4 2,0 10,2 26,6 7,2 13,3 18,5 1,8 2,13 2,15 0,2 0,5 -1,9 -5,0 -9,0 -12,0 -24,0 -44,-1 -60,-2 -17,-2 -46,-2 -90,-2 -7,0 -27,1 -61,4 -13,1 -22,1 -25,1 0,-3 0,-6 0,-8 v -8 -3 c 5,-7 15,-12 29,-15 24,-6 40,-11 50,-15 2,-4 4,-10 4,-17 2,-28 2,-71 2,-131 l -1,-130 c 0,-36 -1,-57 -2,-65 0,-2 -1,-4 -2,-5 -1,-1 -3,-2 -5,-2 -7,-1 -30,-1 -69,-1 -22,0 -36,2 -43,6 -10,6 -24,21 -44,46 -6,7 -10,11 -13,11 -11,-5 -17,-10 -20,-13 7,-15 17,-45 29,-90 4,-13 6,-22 8,-26 z m 437,464 1,-24 c 4,-1 12,-3 23,-5 18,-3 28,-6 32,-9 4,-3 8,-9 14,-20 l 69,-182 81,-213 c 8,0 15,0 22,0 h 16 l 3,6 59,141 c 13,30 26,59 36,87 11,28 20,51 28,69 5,11 11,27 19,48 4,12 10,26 19,44 5,10 8,15 10,17 4,3 11,6 20,7 9,1 20,4 30,8 1,8 2,13 2,17 0,2 0,4 0,8 -17,0 -36,-1 -56,-2 -20,-2 -39,-2 -55,-2 -18,0 -31,0 -39,1 l -58,3 -17,1 c 0,-8 0,-16 1,-23 l 38,-8 c 11,-3 18,-5 20,-7 2,-2 4,-5 4,-8 0,-3 -1,-6 -2,-9 l -14,-34 -27,-67 h -131 c -5,11 -15,38 -30,80 -4,12 -7,20 -7,25 0,6 2,10 5,13 5,4 15,7 30,9 2,0 10,2 24,4 0,8 0,14 0,17 0,2 0,5 -1,8 -14,0 -48,-2 -101,-5 l -14,2 c -17,3 -33,4 -48,4 h -6 z m 161,-193 c 54,1 85,1 95,1 h 9 c -7,-20 -16,-44 -27,-71 -11,-27 -20,-48 -27,-62 l -50,133 z m 326,-228 v -26 l 82,5 h 37 13 c 14,0 36,-1 65,-2 17,-1 28,-2 32,-2 29,0 50,2 65,5 22,5 40,12 53,22 13,10 24,24 34,43 9,19 14,36 14,52 0,40 -13,72 -38,97 -25,25 -57,37 -95,37 -13,0 -26,-2 -38,-5 -12,-3 -23,-8 -34,-14 -1,-7 -2,-16 -2,-27 6,0 11,1 15,1 4,0 8,0 12,0 20,0 36,-5 50,-16 18,-14 27,-37 27,-69 0,-23 -4,-41 -12,-56 -8,-14 -17,-24 -28,-29 -15,-7 -32,-10 -50,-10 -17,0 -30,3 -37,8 -1,3 -3,6 -4,9 l 2,162 -1,14 1,14 c 0,3 0,8 0,14 v 28 45 54 c 0,8 0,18 1,31 l 69,9 c 1,6 1,10 1,13 0,4 -1,8 -2,15 -6,1 -10,1 -13,1 -7,0 -20,-1 -40,-2 -20,-2 -42,-2 -67,-2 -28,0 -55,2 -81,5 -4,1 -11,1 -20,2 -1,-7 -1,-12 -1,-15 0,-2 0,-5 1,-10 l 21,-7 c 14,-4 27,-10 37,-16 2,-7 3,-13 3,-18 0,-2 0,-5 0,-8 0,-7 0,-17 0,-30 l -1,-96 -4,-109 c -2,-52 -3,-80 -4,-84 -2,-7 -4,-12 -8,-16 -4,-4 -10,-6 -20,-8 -19,-3 -31,-6 -38,-8 z m 452,-43 h 21 c 2,3 3,4 4,6 6,11 11,19 15,22 3,0 19,1 47,1 18,0 33,0 47,0 h 7 42 78 106 l 20,-3 c 3,-2 6,-8 9,-17 1,-2 2,-5 4,-9 h 15 c 2,0 6,0 10,0 0,16 0,40 0,71 v 31 18 c 0,6 0,11 -1,15 -9,3 -18,5 -25,6 -6,-9 -12,-22 -19,-38 -7,-17 -11,-26 -13,-28 -3,-3 -6,-5 -10,-6 -6,-1 -30,-2 -73,-2 -6,0 -14,0 -24,1 -1,9 -1,16 -1,22 v 46 101 l 1,109 v 45 c 0,16 1,28 4,36 4,2 11,3 20,4 2,0 10,2 26,6 7,2 13,3 18,5 1,8 2,13 2,15 0,2 0,5 -1,9 -5,0 -9,0 -12,0 -24,0 -44,-1 -60,-2 -17,-2 -46,-2 -90,-2 -7,0 -27,1 -61,4 -13,1 -22,1 -25,1 0,-3 0,-6 0,-8 v -8 -3 c 5,-7 15,-12 29,-15 24,-6 40,-11 50,-15 2,-4 4,-10 4,-17 2,-28 2,-71 2,-131 l -1,-130 c 0,-36 -1,-57 -2,-65 0,-2 -1,-4 -2,-5 -1,-1 -3,-2 -5,-2 -7,-1 -30,-1 -69,-1 -22,0 -36,2 -43,6 -10,6 -24,21 -44,46 -6,7 -10,11 -13,11 -11,-5 -17,-10 -20,-13 7,-15 17,-45 29,-90 4,-13 6,-22 8,-26 z"
         id="path20"
         inkscape:connector-curvature="0"
         style="fill:#fefefe;fill-rule:nonzero" /><g
         id="g26"><path
           class="fil3"
           d="m 5597,4481 c -4,0 -10,-1 -19,-1 -3,0 -7,0 -11,1 v 2 4 1 c 0,1 0,2 0,3 v 22 c 0,3 0,5 0,6 0,0 1,0 1,0 l 8,1 c 1,0 2,0 3,0 1,0 1,0 1,0 1,0 1,0 2,1 0,1 0,2 0,2 0,1 0,2 0,3 h -5 c -2,0 -5,0 -8,0 h -6 -4 -8 c -2,0 -4,0 -7,0 h -5 -8 c 0,-2 0,-3 0,-6 0,0 2,0 3,0 l 3,-1 c 3,-1 6,-1 7,-2 l 1,-19 v -16 -2 c 0,-2 0,-7 0,-16 v -2 -6 -7 -3 c 0,-6 0,-10 -1,-12 0,0 -1,0 -1,0 0,0 -1,0 -2,0 -2,0 -5,-1 -6,-1 h -1 c -1,0 -3,0 -3,-1 0,-1 0,-2 0,-3 0,-1 0,-1 0,-3 1,0 2,0 4,0 2,0 4,0 4,0 h 5 l 7,1 c 3,0 5,0 6,0 1,0 2,0 3,0 2,0 6,0 12,-1 1,0 2,0 4,0 2,0 4,0 5,0 v 2 c 0,1 0,2 0,3 l -14,2 c -1,1 -2,1 -2,2 v 3 7 1 c 0,1 0,1 0,1 v 10 c 0,1 0,2 0,2 v 2 c 0,1 0,2 0,3 v 5 c 2,0 8,1 18,1 h 12 c 1,-14 7,-26 17,-34 10,-8 23,-13 38,-13 17,0 30,5 40,15 10,10 15,22 15,36 0,14 -5,26 -15,37 -10,10 -24,15 -41,15 -6,0 -12,-1 -18,-2 -5,-1 -10,-3 -15,-6 -4,-3 -8,-6 -11,-10 -3,-4 -6,-8 -7,-12 -2,-4 -3,-10 -3,-17 z m 85,-2 c 0,-31 -11,-46 -33,-46 -8,0 -15,4 -20,11 -5,7 -8,17 -8,31 0,10 1,19 4,27 3,8 7,14 12,16 5,3 11,4 16,4 8,0 15,-3 20,-10 6,-7 8,-18 8,-32 z m 36,-47 v -6 l 18,1 h 8 3 c 3,0 8,0 15,-1 4,0 6,0 7,0 6,0 11,0 15,1 5,1 9,3 12,5 3,2 6,5 8,10 2,4 3,8 3,12 0,9 -3,16 -8,22 -6,6 -13,8 -21,8 -3,0 -6,0 -9,-1 -3,-1 -5,-2 -8,-3 0,-1 0,-4 0,-6 1,0 2,0 3,0 1,0 2,0 3,0 4,0 8,-1 11,-4 4,-3 6,-8 6,-15 0,-5 -1,-9 -3,-12 -2,-3 -4,-5 -6,-7 -3,-2 -7,-2 -11,-2 -4,0 -7,1 -8,2 0,1 -1,1 -1,2 l 1,36 v 3 3 c 0,1 0,2 0,3 v 6 10 12 c 0,2 0,4 0,7 l 16,2 c 0,1 0,2 0,3 0,1 0,2 0,3 -1,0 -2,0 -3,0 -2,0 -5,0 -9,-1 -4,0 -9,-1 -15,-1 -6,0 -12,0 -18,1 -1,0 -3,0 -5,0 0,-2 0,-3 0,-3 0,0 0,-1 0,-2 l 5,-2 c 3,-1 6,-2 8,-4 0,-1 1,-3 1,-4 0,-1 0,-1 0,-2 0,-2 0,-4 0,-7 v -22 l -1,-24 c 0,-12 -1,-18 -1,-19 0,-2 -1,-3 -2,-4 -1,-1 -2,-1 -4,-2 -4,-1 -7,-1 -8,-2 z m 134,67 c 27,-28 45,-46 53,-56 0,-4 0,-6 0,-7 0,-1 -1,-1 -3,-2 -1,-1 -4,-2 -8,-3 -2,0 -3,-1 -4,-1 0,-2 0,-3 1,-4 h 2 c 4,0 7,0 9,0 4,1 8,1 12,1 7,0 13,0 18,-1 2,0 4,0 5,0 1,0 3,0 5,0 0,2 0,4 0,5 -6,1 -10,2 -12,3 -2,1 -3,2 -3,4 v 11 17 10 14 11 9 c 0,2 0,4 0,6 1,0 2,1 3,1 5,1 8,2 11,3 v 6 h -3 c -1,0 -2,0 -3,0 h -6 c -4,0 -11,-1 -20,-1 -5,0 -8,0 -11,1 -3,0 -5,1 -6,1 -1,0 -1,0 -2,0 0,-2 0,-4 0,-5 l 5,-1 3,-1 c 3,-1 5,-1 6,-1 1,-4 1,-13 1,-27 v -23 -14 l -54,56 c 0,6 0,9 0,9 0,0 1,1 3,1 l 5,1 c 4,1 7,1 7,2 0,1 0,2 0,2 0,1 0,2 0,3 h -5 c -2,0 -5,0 -8,0 h -6 -4 -7 c -2,0 -5,0 -8,0 -3,0 -8,0 -13,0 0,-2 0,-3 0,-6 0,0 2,0 3,0 l 3,-1 c 3,-1 6,-1 7,-2 1,-10 1,-18 1,-25 v -10 -26 c 0,-8 0,-15 -1,-20 0,0 0,-1 -1,-2 0,0 -1,0 -1,0 0,0 -1,0 -1,0 -2,0 -5,-1 -7,-1 h -1 c -1,0 -3,0 -3,-1 0,-1 0,-2 0,-3 0,-1 0,-1 0,-3 1,0 2,0 4,0 4,0 8,0 13,1 5,0 8,1 11,1 4,0 8,0 12,-1 4,0 7,-1 8,-1 1,0 2,0 4,0 v 2 c 0,1 0,2 0,3 l -14,2 c -1,0 -1,1 -1,4 0,2 0,5 0,8 v 4 7 4 5 c 0,1 0,2 0,4 0,2 0,5 0,7 0,2 0,4 0,6 v 4 13 z m 171,28 h -35 c -1,0 -4,0 -7,0 h -7 c -5,0 -9,1 -11,2 -2,2 -5,6 -8,13 -1,3 -2,5 -3,6 -1,0 -2,0 -3,0 -1,0 -1,0 -2,-1 0,-1 0,-2 0,-3 0,-2 0,-4 1,-8 0,-6 1,-11 2,-15 1,0 2,-1 5,-1 3,0 5,-1 6,-1 1,-1 3,-3 5,-8 2,-4 5,-12 10,-23 l 11,-25 11,-24 6,-13 h 8 c 0,0 1,2 3,6 12,25 23,47 31,67 4,10 7,16 9,18 2,2 4,4 7,4 2,1 3,1 4,3 1,1 1,4 1,10 l 1,8 c 0,2 0,4 0,6 -1,0 -2,0 -4,0 -1,-2 -2,-4 -3,-6 -2,-5 -4,-9 -6,-11 -2,-2 -4,-3 -7,-4 -3,-1 -8,-1 -16,-1 h -2 -2 -2 -1 z m -22,-76 c -18,41 -27,63 -27,64 0,2 1,3 4,3 3,0 10,0 21,0 h 16 c 8,0 12,0 13,0 1,0 2,-1 2,-2 0,-1 -1,-4 -3,-8 l -19,-41 c -4,-9 -7,-15 -8,-17 z m 106,48 c 27,-28 45,-46 53,-56 0,-4 0,-6 0,-7 0,-1 -1,-1 -3,-2 -1,-1 -4,-2 -8,-3 -2,0 -3,-1 -4,-1 0,-2 0,-3 1,-4 h 2 c 4,0 7,0 9,0 4,1 8,1 12,1 7,0 13,0 18,-1 2,0 4,0 5,0 1,0 3,0 5,0 0,2 0,4 0,5 -6,1 -10,2 -12,3 -2,1 -3,2 -3,4 v 11 17 10 14 11 9 c 0,2 0,4 0,6 1,0 2,1 3,1 5,1 8,2 11,3 v 6 h -3 c -1,0 -2,0 -3,0 h -6 c -4,0 -11,-1 -20,-1 -5,0 -8,0 -11,1 -3,0 -5,1 -6,1 -1,0 -1,0 -2,0 0,-2 0,-4 0,-5 l 5,-1 3,-1 c 3,-1 5,-1 6,-1 1,-4 1,-13 1,-27 v -23 -14 l -54,56 c 0,6 0,9 0,9 0,0 1,1 3,1 l 5,1 c 4,1 7,1 7,2 0,1 0,2 0,2 0,1 0,2 0,3 h -5 c -2,0 -5,0 -8,0 h -6 -4 -7 c -2,0 -5,0 -8,0 -3,0 -8,0 -13,0 0,-2 0,-3 0,-6 0,0 2,0 3,0 l 3,-1 c 3,-1 6,-1 7,-2 1,-10 1,-18 1,-25 v -10 -26 c 0,-8 0,-15 -1,-20 0,0 0,-1 -1,-2 0,0 -1,0 -1,0 0,0 -1,0 -1,0 -2,0 -5,-1 -7,-1 h -1 c -1,0 -3,0 -3,-1 0,-1 0,-2 0,-3 0,-1 0,-1 0,-3 1,0 2,0 4,0 4,0 8,0 13,1 5,0 8,1 11,1 4,0 8,0 12,-1 4,0 7,-1 8,-1 1,0 2,0 4,0 v 2 c 0,1 0,2 0,3 l -14,2 c -1,0 -1,1 -1,4 0,2 0,5 0,8 v 4 7 4 5 c 0,1 0,2 0,4 0,2 0,5 0,7 0,2 0,4 0,6 v 4 13 z m 96,-66 v -6 h 4 c 2,0 5,0 7,0 l 12,1 c 8,0 17,0 26,-1 0,1 0,1 0,1 v 2 2 1 c -2,0 -5,1 -8,1 -3,0 -4,0 -5,1 -1,1 -1,4 -1,9 0,16 0,26 1,30 0,4 2,7 5,10 3,3 7,4 12,4 4,0 8,-1 12,-3 4,-2 7,-5 8,-9 2,-4 2,-15 2,-31 0,-3 0,-6 -1,-9 -2,-1 -5,-2 -9,-2 -3,0 -4,0 -4,0 v -7 l 15,1 h 4 3 c 3,0 5,0 6,0 2,0 5,0 9,-1 3,0 6,0 11,0 0,1 0,1 0,1 v 2 c 0,1 0,2 0,2 0,0 0,1 0,1 -2,1 -4,1 -7,2 -3,1 -6,1 -7,2 0,1 0,4 0,7 v 6 7 14 13 26 c 0,6 0,10 0,11 3,1 6,1 9,1 l 5,1 c 0,2 0,3 0,4 v 3 h -1 -13 -4 c -4,0 -7,0 -8,0 -3,0 -6,0 -9,0 -6,1 -10,1 -12,1 v -6 c 1,0 2,-1 5,-1 4,-1 6,-2 8,-3 1,-1 1,-4 1,-7 v -8 -18 c -7,7 -17,11 -28,11 -7,0 -13,-1 -18,-2 -5,-2 -9,-4 -11,-7 -2,-3 -4,-6 -4,-10 -1,-3 -1,-11 -1,-22 v -1 -4 -6 -2 c 0,-3 -1,-5 -2,-6 -1,-1 -4,-2 -9,-2 -1,0 -2,0 -3,0 z m 120,-6 c 3,0 5,0 8,1 4,1 9,1 14,1 2,0 7,0 14,0 11,0 22,-1 31,-1 h 14 c 3,0 8,0 14,1 1,1 1,2 1,4 v 16 3 c 0,0 0,1 0,1 h -3 c 0,0 -1,0 -3,0 0,-1 -1,-3 -2,-5 l -3,-6 c -1,-2 -3,-5 -5,-7 -1,0 -3,-1 -5,-1 -1,0 -2,0 -5,0 -5,0 -10,-1 -15,-1 -6,0 -12,0 -17,0 0,1 0,6 0,15 v 13 10 c 1,0 2,0 3,0 9,0 16,0 20,-1 4,0 6,-1 7,-2 1,-1 2,-2 2,-3 0,-1 1,-5 3,-11 h 1 5 c 0,5 0,8 0,10 0,5 0,9 0,10 0,2 0,3 0,4 0,1 0,4 0,7 0,3 0,5 0,7 v 2 h -6 c 0,-1 -1,-3 -1,-5 -1,-5 -2,-8 -3,-9 -1,-1 -2,-2 -3,-2 -1,0 -5,-1 -11,-1 -8,0 -14,0 -17,1 0,1 0,2 0,3 0,6 0,11 0,15 v 17 c 0,2 1,3 2,4 2,1 9,2 19,2 7,0 13,-1 18,-2 3,-1 7,-3 9,-5 4,-3 6,-8 9,-14 2,0 3,0 4,0 1,0 1,0 3,0 0,1 0,2 0,3 v 2 l -3,15 -1,9 c -3,0 -6,0 -8,0 -3,0 -11,0 -23,-1 -9,0 -19,-1 -32,-1 -6,0 -14,0 -23,1 h -3 -9 v -5 c 1,0 3,-1 6,-1 5,-1 9,-1 11,-2 1,-1 1,-3 1,-6 0,-1 0,-2 0,-4 v -2 -29 -9 -12 -9 l -1,-10 c 0,0 0,-1 0,-2 -1,-1 -1,-1 -2,-1 -1,0 -1,0 -2,0 -3,-1 -6,-1 -8,-1 -1,0 -2,0 -3,0 v -6 z m 203,2 c 1,2 2,6 4,13 1,3 1,7 1,10 h -7 c -5,-7 -10,-12 -15,-15 -5,-3 -11,-5 -18,-5 -8,0 -14,3 -19,9 -7,8 -10,20 -10,35 0,9 1,15 2,19 2,6 4,11 7,15 2,3 5,5 8,7 5,2 9,3 14,3 6,0 11,-2 16,-5 5,-4 10,-9 15,-16 2,0 4,-1 7,-1 0,2 -1,4 -1,6 0,1 -1,4 -2,10 l -1,2 -1,4 c -3,2 -8,4 -13,5 -6,1 -13,2 -21,2 -6,0 -12,-1 -18,-2 -6,-1 -10,-3 -14,-6 -6,-4 -10,-8 -14,-12 -3,-4 -6,-9 -7,-14 -2,-5 -2,-11 -2,-17 0,-15 5,-28 15,-38 10,-10 23,-15 39,-15 6,0 12,0 18,1 6,1 11,2 16,3 z m 70,39 c 5,1 9,4 12,8 3,4 8,10 13,19 6,10 10,17 13,20 3,3 7,5 12,7 2,1 3,1 4,1 0,1 0,2 0,2 0,1 0,2 0,3 h -8 -12 c -3,0 -7,0 -12,0 -3,-7 -8,-16 -15,-27 -7,-11 -11,-18 -14,-20 -3,-2 -6,-3 -9,-3 0,2 0,4 0,5 v 11 c 0,2 0,4 0,6 v 9 3 5 c 1,1 4,2 8,3 2,1 4,1 6,2 0,1 0,2 0,2 0,0 0,1 0,2 -2,0 -4,0 -6,0 -4,0 -8,0 -12,0 h -5 -7 -14 -7 v -4 c 0,0 3,-1 7,-3 l 2,-1 c 2,-1 4,-2 5,-2 1,-1 2,-1 2,-3 0,-1 0,-5 0,-12 v -7 -16 -12 -3 -10 -4 c 0,-6 0,-10 -1,-12 -2,-1 -5,-3 -9,-4 -3,-1 -5,-1 -6,-2 l 1,-5 c 1,0 2,0 3,0 4,0 7,0 11,1 4,0 9,1 14,1 h 3 9 c 1,0 3,0 6,0 h 3 2 c 0,0 0,1 0,2 0,2 0,3 0,3 -3,1 -6,2 -10,3 -3,0 -4,1 -5,1 -1,0 -1,1 -1,3 0,5 0,8 0,10 v 7 5 6 7 c 3,-1 6,-2 9,-5 3,-2 6,-7 11,-14 8,-13 14,-21 19,-24 5,-3 10,-5 15,-5 5,0 9,1 12,4 3,3 4,6 4,9 0,3 -1,5 -3,7 -2,2 -4,3 -7,3 -2,0 -4,0 -5,-1 -1,-1 -3,-3 -5,-6 -2,-3 -4,-4 -6,-4 -4,0 -10,6 -17,18 -4,7 -8,11 -11,13 z m 51,59 v -5 c 1,0 3,-1 5,-1 4,-1 6,-1 7,-2 1,-1 2,-2 3,-4 l 16,-41 18,-48 c 2,0 3,0 5,0 h 4 l 1,1 13,32 c 3,7 6,13 8,20 2,6 4,12 6,16 1,2 2,6 4,11 1,3 2,6 4,10 1,2 2,3 2,4 1,1 2,1 5,2 2,0 4,1 7,2 0,2 0,3 0,4 0,0 0,1 0,2 -4,0 -8,0 -13,-1 -5,0 -9,-1 -12,-1 -4,0 -7,0 -9,0 l -13,1 h -4 c 0,-2 0,-4 0,-5 l 9,-2 c 3,-1 4,-1 4,-2 1,-1 1,-1 1,-2 0,-1 0,-1 0,-2 l -3,-8 -6,-15 h -29 c -1,2 -3,8 -7,18 -1,3 -1,5 -1,6 0,1 0,2 1,3 1,1 3,2 7,2 0,0 2,0 5,1 0,2 0,3 0,4 0,1 0,1 0,2 -3,0 -11,0 -23,-1 l -3,1 c -4,1 -7,1 -11,1 h -1 z m 36,-43 c 12,0 19,0 21,0 h 2 c -2,-5 -4,-10 -6,-16 -2,-6 -4,-11 -6,-14 z m 173,38 c 0,1 0,2 0,2 0,0 0,1 0,3 -5,0 -10,0 -14,-1 h -3 -3 c -2,0 -4,0 -5,0 -2,0 -9,0 -20,1 h -3 c 0,0 -1,0 -2,0 0,-1 0,-3 0,-6 1,0 2,-1 6,-1 5,-1 8,-2 10,-3 v -14 -15 -5 -2 h -6 c -3,0 -5,0 -7,1 -1,1 -2,2 -3,3 -1,2 -3,6 -7,13 -4,7 -7,14 -10,20 l -5,10 -8,-1 -21,1 h -1 -3 c 0,-1 0,-1 0,-2 0,-1 0,-1 1,-2 1,0 3,-1 5,-2 3,-1 5,-2 7,-4 2,-2 6,-8 12,-19 8,-13 13,-20 16,-22 -15,-4 -22,-12 -22,-24 0,-7 3,-14 9,-19 6,-5 16,-7 30,-7 4,0 8,0 12,1 5,0 10,1 17,1 h 3 3 c 6,0 11,0 14,1 0,0 0,1 0,1 v 2 c 0,2 0,2 0,3 -1,0 -3,0 -5,1 -3,0 -6,1 -8,1 0,3 0,10 0,20 v 20 7 11 7 c 0,11 0,17 1,18 2,1 4,1 7,2 3,0 5,1 6,2 z m -35,-50 v -8 -4 -8 -6 -12 c -1,0 -4,0 -6,0 -8,0 -14,1 -17,4 -4,3 -5,8 -5,15 0,6 2,11 6,14 4,3 10,5 18,5 h 5 z"
           id="path22"
           inkscape:connector-curvature="0"
           style="fill:#bdbfc1;fill-rule:nonzero" /><path
           class="fil3"
           d="m 6963,4469 c 5,1 9,4 12,8 3,4 8,10 13,19 6,10 10,17 13,20 3,3 7,5 12,7 2,1 3,1 4,1 0,1 0,2 0,2 0,1 0,2 0,3 h -8 -12 c -3,0 -7,0 -12,0 -3,-7 -8,-16 -15,-27 -7,-11 -11,-18 -14,-20 -3,-2 -6,-3 -9,-3 0,2 0,4 0,5 v 11 c 0,2 0,4 0,6 v 9 3 5 c 1,1 4,2 8,3 2,1 4,1 6,2 0,1 0,2 0,2 0,0 0,1 0,2 -2,0 -4,0 -6,0 -4,0 -8,0 -12,0 h -5 -7 -14 -7 v -4 c 0,0 3,-1 7,-3 l 2,-1 c 2,-1 4,-2 5,-2 1,-1 2,-1 2,-3 0,-1 0,-5 0,-12 v -7 -16 -12 -3 -10 -4 c 0,-6 0,-10 -1,-12 -2,-1 -5,-3 -9,-4 -3,-1 -5,-1 -6,-2 l 1,-5 c 1,0 2,0 3,0 4,0 7,0 11,1 4,0 9,1 14,1 h 3 9 c 1,0 3,0 6,0 h 3 2 c 0,0 0,1 0,2 0,2 0,3 0,3 -3,1 -6,2 -10,3 -3,0 -4,1 -5,1 -1,0 -1,1 -1,3 0,5 0,8 0,10 v 7 5 6 7 c 3,-1 6,-2 9,-5 3,-2 6,-7 11,-14 8,-13 14,-21 19,-24 5,-3 10,-5 15,-5 5,0 9,1 12,4 3,3 4,6 4,9 0,3 -1,5 -3,7 -2,2 -4,3 -7,3 -2,0 -4,0 -5,-1 -1,-1 -3,-3 -5,-6 -2,-3 -4,-4 -6,-4 -4,0 -10,6 -17,18 -4,7 -8,11 -11,13 z m 60,8 c 0,-6 1,-13 4,-19 2,-5 4,-9 8,-13 3,-4 7,-7 12,-10 5,-3 10,-5 15,-6 5,-1 11,-2 17,-2 11,0 20,2 28,6 8,4 14,9 19,16 6,9 9,18 9,28 0,15 -5,27 -15,37 -10,10 -24,16 -41,16 -4,0 -8,0 -12,-1 -3,0 -5,-1 -8,-2 -4,-1 -6,-2 -7,-2 -6,-3 -10,-6 -13,-10 -3,-3 -6,-7 -9,-11 -1,-2 -3,-7 -4,-13 -1,-4 -2,-9 -2,-14 z m 52,-43 c -4,0 -8,1 -12,3 -3,2 -6,4 -8,7 -3,4 -5,9 -6,14 -1,5 -2,11 -2,18 0,4 0,8 1,9 0,1 0,2 0,3 0,4 1,7 2,8 2,7 4,11 5,12 2,3 4,5 7,8 2,1 4,3 7,4 3,1 6,2 9,2 6,0 11,-1 15,-4 5,-3 9,-7 11,-13 3,-6 4,-14 4,-24 0,-4 0,-10 -1,-17 v -1 c 0,0 0,-1 -1,-3 -2,-8 -6,-15 -11,-19 -5,-4 -12,-7 -20,-7 z m 69,94 v -5 c 6,-1 10,-2 12,-4 1,-1 2,-4 3,-10 l 1,-27 1,-28 c 0,-2 0,-3 0,-3 0,-7 0,-11 -1,-12 -1,-1 -4,-2 -10,-3 -1,0 -3,-1 -3,-1 0,-1 0,-2 0,-3 v -2 c 2,0 4,0 7,0 l 22,1 c 1,0 1,0 2,0 h 3 c 1,1 2,2 3,4 2,4 4,9 8,16 l 1,2 12,26 c 0,1 1,2 1,3 1,2 2,4 2,5 1,2 2,4 3,6 1,2 2,4 3,5 1,-1 1,-3 2,-4 2,-5 4,-9 6,-13 3,-7 8,-18 14,-32 1,-2 2,-6 5,-10 2,-5 3,-7 4,-7 0,0 1,-1 3,-1 1,0 1,0 2,0 3,0 6,0 10,0 5,0 10,0 13,0 3,0 5,0 6,0 1,0 1,0 2,0 0,1 0,1 0,2 v 2 c 0,0 0,1 0,2 -5,1 -9,2 -12,3 -2,1 -3,2 -3,4 v 1 l 1,24 c 0,2 1,13 1,32 0,4 1,10 1,16 0,1 0,1 0,2 0,1 0,2 1,2 1,0 5,2 14,4 0,1 0,1 0,2 0,1 0,2 0,3 -1,0 -5,0 -10,-1 -6,-1 -11,-1 -16,-1 -7,0 -15,0 -22,1 -1,0 -2,0 -3,0 v -5 c 2,-1 5,-2 8,-2 2,0 4,-1 5,-2 1,-1 1,-4 1,-8 0,-2 0,-3 0,-4 0,-5 0,-13 0,-23 l -1,-27 c 0,-4 0,-7 -1,-8 l -19,44 c 0,1 -1,3 -2,4 -1,3 -2,4 -2,5 -4,10 -7,17 -8,22 0,1 -1,3 -2,5 h -6 l -4,-12 c -1,-3 -3,-8 -6,-14 -2,-4 -3,-7 -4,-9 0,-1 -1,-2 -1,-2 l -1,-2 c 0,0 0,-1 0,-1 l -11,-25 -7,-15 -1,36 -1,24 c 0,4 1,7 2,8 1,2 5,3 9,4 l 4,1 v 6 c -3,0 -6,0 -10,-1 -3,0 -8,-1 -14,-1 -1,0 -6,0 -15,1 z m 146,0 c 0,-2 0,-3 0,-6 0,0 2,0 3,0 l 3,-1 c 3,-1 6,-1 7,-2 l 1,-19 v -16 -5 -22 -7 -3 c 0,-6 0,-10 -1,-12 0,0 -1,0 -1,0 0,0 -1,0 -1,0 -2,0 -5,-1 -6,-1 h -1 c -1,0 -3,0 -3,-1 0,-1 0,-2 0,-3 0,-1 0,-1 0,-3 1,0 2,0 4,0 3,0 6,0 10,0 9,1 19,1 30,1 h 25 18 c 14,0 23,0 29,-1 2,0 4,0 5,0 1,0 3,0 5,0 0,2 0,4 0,5 -7,1 -12,3 -14,4 0,1 -1,4 -1,9 v 2 4 17 14 10 11 9 c 0,2 0,4 0,6 1,0 2,1 3,1 5,1 8,2 11,3 v 6 h -4 c -1,0 -2,0 -3,0 h -6 c -4,0 -11,-1 -20,-1 -3,0 -6,0 -8,0 l -8,1 c -1,0 -2,0 -3,0 0,-2 0,-4 0,-5 l 5,-1 3,-1 c 3,-1 5,-1 6,-1 1,-3 1,-19 1,-48 v -33 c -2,0 -4,0 -6,0 h -36 -1 c 0,0 0,0 -1,0 0,0 -1,0 -1,0 h -3 c -3,0 -5,0 -5,1 0,5 0,10 0,14 v 40 22 c 0,3 0,5 0,6 0,0 1,1 3,1 l 4,1 c 2,0 3,0 4,1 l 3,1 c 1,0 1,0 2,1 0,1 0,2 0,2 0,1 0,2 0,3 h -5 c -2,0 -5,0 -8,0 h -6 -4 -8 c -2,0 -4,0 -7,0 h -5 -8 z m 130,0 v -5 c 1,0 3,-1 5,-1 4,-1 6,-1 7,-2 1,-1 2,-2 3,-4 l 16,-41 18,-48 c 2,0 3,0 5,0 h 4 l 1,1 13,32 c 3,7 6,13 8,20 2,6 4,12 6,16 1,2 2,6 4,11 1,3 2,6 4,10 1,2 2,3 2,4 1,1 2,1 5,2 2,0 4,1 7,2 0,2 0,3 0,4 0,0 0,1 0,2 -4,0 -8,0 -13,-1 -5,0 -9,-1 -12,-1 -4,0 -7,0 -9,0 l -13,1 h -4 c 0,-2 0,-4 0,-5 l 9,-2 c 3,-1 4,-1 4,-2 1,-1 1,-1 1,-2 0,-1 0,-1 0,-2 l -3,-8 -6,-15 h -29 c -1,2 -3,8 -7,18 -1,3 -1,5 -1,6 0,1 0,2 1,3 1,1 3,2 7,2 0,0 2,0 5,1 0,2 0,3 0,4 0,1 0,1 0,2 -3,0 -11,0 -23,-1 l -3,1 c -4,1 -7,1 -11,1 h -1 z m 36,-43 c 12,0 19,0 21,0 h 2 c -2,-5 -4,-10 -6,-16 -2,-6 -4,-11 -6,-14 z m 74,43 c 0,-2 0,-3 0,-6 l 10,-2 c 1,0 3,-1 4,-1 l 1,-19 c 0,-7 0,-12 0,-16 v -2 c 0,-2 0,-7 0,-16 v -2 -6 -7 -3 c 0,-3 0,-6 -1,-10 0,0 0,-1 -1,-2 0,0 -1,0 -1,0 -1,0 -1,0 -2,0 -2,0 -4,-1 -6,-1 h -1 c -1,0 -2,0 -3,-1 0,-1 0,-2 0,-3 0,-1 0,-1 0,-3 1,0 2,0 4,0 2,0 3,0 4,0 6,1 11,1 14,1 1,0 3,0 4,0 1,0 3,0 4,0 2,0 6,0 12,-1 1,0 2,0 4,0 2,0 4,0 5,0 0,1 0,2 0,2 0,1 0,2 0,3 l -14,2 c -1,1 -2,1 -2,2 v 3 1 3 3 1 c 0,1 0,1 0,1 v 10 c 0,1 0,2 0,2 0,0 0,1 0,2 0,1 0,2 0,3 0,1 0,3 0,5 1,0 3,0 4,0 h 11 6 14 14 c 2,0 4,0 6,-1 0,-2 0,-6 0,-13 v -3 -13 l -1,-5 c 0,0 -1,-1 -1,-1 -2,-1 -5,-2 -11,-3 -1,0 -2,0 -3,-1 0,-2 0,-3 1,-4 1,0 2,0 2,0 h 7 c 5,1 10,1 14,1 1,0 2,0 3,0 h 10 c 1,0 2,0 3,0 2,0 4,-1 6,-1 1,0 3,0 5,0 0,2 0,4 0,5 -5,1 -8,2 -9,2 -1,0 -3,1 -4,2 v 2 1 2 1 c 0,1 0,2 0,2 v 2 c 0,2 0,4 0,4 v 10 7 10 c 0,2 0,7 0,14 v 11 9 c 0,2 0,4 0,6 1,0 2,1 3,1 5,1 8,2 11,3 v 5 c -2,0 -3,0 -4,0 -2,0 -5,0 -8,0 -4,0 -11,-1 -20,-1 -4,0 -10,0 -16,1 -1,0 -2,0 -3,0 0,-2 0,-4 1,-5 l 6,-1 6,-1 c 1,0 1,0 2,-1 1,-4 1,-11 1,-21 v -7 c 0,-3 -1,-6 -1,-10 -2,0 -4,0 -6,0 h -36 -1 -1 c 0,0 -1,0 -1,0 -1,0 -2,0 -3,0 h -2 c -1,0 -2,0 -3,0 v 6 1 c 0,1 0,2 0,3 v 24 c 0,1 0,3 0,4 h 1 l 11,2 c 1,0 1,0 1,0 1,0 1,0 2,1 0,1 0,2 0,2 0,1 0,2 0,3 -2,0 -3,0 -5,0 -1,0 -2,0 -3,0 0,0 -1,0 -1,0 h -11 c -3,0 -6,0 -11,0 h -2 c -2,0 -3,0 -4,0 -3,0 -8,1 -15,1 z m 173,-28 c 27,-28 45,-46 53,-56 0,-4 0,-6 0,-7 0,-1 -1,-1 -3,-2 -1,-1 -4,-2 -8,-3 -2,0 -3,-1 -4,-1 0,-2 0,-3 1,-4 h 2 c 4,0 7,0 9,0 4,1 8,1 12,1 7,0 13,0 18,-1 2,0 4,0 5,0 1,0 3,0 5,0 0,2 0,4 0,5 -6,1 -10,2 -12,3 -2,1 -3,2 -3,4 v 11 17 10 14 11 9 c 0,2 0,4 0,6 1,0 2,1 3,1 5,1 8,2 11,3 v 6 h -3 c -1,0 -2,0 -3,0 h -6 c -4,0 -11,-1 -20,-1 -5,0 -8,0 -11,1 -3,0 -5,1 -6,1 -1,0 -1,0 -2,0 0,-2 0,-4 0,-5 l 5,-1 3,-1 c 3,-1 5,-1 6,-1 1,-4 1,-13 1,-27 v -23 -14 l -54,56 c 0,6 0,9 0,9 0,0 1,1 3,1 l 5,1 c 4,1 7,1 7,2 0,1 0,2 0,2 0,1 0,2 0,3 h -5 c -2,0 -5,0 -8,0 h -6 -4 -7 c -2,0 -5,0 -8,0 -3,0 -8,0 -13,0 0,-2 0,-3 0,-6 0,0 2,0 3,0 l 3,-1 c 3,-1 6,-1 7,-2 1,-10 1,-18 1,-25 v -10 -26 c 0,-8 0,-15 -1,-20 0,0 0,-1 -1,-2 0,0 -1,0 -1,0 0,0 -1,0 -1,0 -2,0 -5,-1 -7,-1 h -1 c -1,0 -3,0 -3,-1 0,-1 0,-2 0,-3 0,-1 0,-1 0,-3 1,0 2,0 4,0 4,0 8,0 13,1 5,0 8,1 11,1 4,0 8,0 12,-1 4,0 7,-1 8,-1 1,0 2,0 4,0 v 2 c 0,1 0,2 0,3 l -14,2 c -1,0 -1,1 -1,4 0,2 0,5 0,8 v 4 7 4 5 c 0,1 0,2 0,4 0,2 0,5 0,7 0,2 0,4 0,6 v 4 13 z m 199,23 c 0,1 0,2 0,2 0,0 0,1 0,3 -5,0 -10,0 -14,-1 h -3 -3 c -2,0 -4,0 -5,0 -2,0 -9,0 -20,1 h -3 c 0,0 -1,0 -2,0 0,-1 0,-3 0,-6 1,0 2,-1 6,-1 5,-1 8,-2 10,-3 v -14 -15 -5 -2 h -6 c -3,0 -5,0 -7,1 -1,1 -2,2 -3,3 -1,2 -3,6 -7,13 -4,7 -7,14 -10,20 l -5,10 -8,-1 -21,1 h -1 -3 c 0,-1 0,-1 0,-2 0,-1 0,-1 1,-2 1,0 3,-1 5,-2 3,-1 5,-2 7,-4 2,-2 6,-8 12,-19 8,-13 13,-20 16,-22 -15,-4 -22,-12 -22,-24 0,-7 3,-14 9,-19 6,-5 16,-7 30,-7 4,0 8,0 12,1 5,0 10,1 17,1 h 3 3 c 6,0 11,0 14,1 0,0 0,1 0,1 v 2 c 0,2 0,2 0,3 -1,0 -3,0 -5,1 -3,0 -6,1 -8,1 0,3 0,10 0,20 v 20 7 11 7 c 0,11 0,17 1,18 2,1 4,1 7,2 3,0 5,1 6,2 z m -35,-50 v -8 -4 -8 -6 -12 c -1,0 -4,0 -6,0 -8,0 -14,1 -17,4 -4,3 -5,8 -5,15 0,6 2,11 6,14 4,3 10,5 18,5 h 5 z"
           id="path24"
           inkscape:connector-curvature="0"
           style="fill:#bdbfc1;fill-rule:nonzero" /></g></g></g></svg>